<?xml version="1.0" encoding="utf-8"?>
<!-- Svg Vector Icons : http://www.onlinewebfonts.com/icon -->
<!DOCTYPE svg PUBLIC "-//W3C//DTD SVG 1.1//EN" "http://www.w3.org/Graphics/SVG/1.1/DTD/svg11.dtd">
<svg version="1.1" xmlns="http://www.w3.org/2000/svg" xmlns:xlink="http://www.w3.org/1999/xlink" x="0px" y="0px" viewBox="0 0 1000 1000" enable-background="new 0 0 1000 1000" xml:space="preserve">
<metadata> Svg Vector Icons : http://www.onlinewebfonts.com/icon </metadata>
<g><path d="M817.4,625.4H633.9c-11.9,0-21.5,8.9-21.5,19.9V658c0,11,9.6,19.9,21.5,19.9h183.4c11.9,0,21.5-8.9,21.5-19.9v-12.7C838.9,634.3,829.2,625.4,817.4,625.4z"/><path d="M428.1,504.4c21.7-22.8,36.6-53.5,36.6-87.1c0-70.6-57.3-127.9-127.9-127.9h0c-70.6,0-127.9,57.3-127.9,127.9c0,34.5,15.7,65.9,38.3,88.9c-59.5,26.6-105.4,78-124.6,141c-2.5,4-4,8.8-4,13.9c0,0.3,0,0.6,0,0.9c0,0.1,0,0.1,0,0.2h0.1c0.6,13.8,12,24.9,26,24.9c14.1,0,25.6-11.2,26-25.2c22.1-72.5,89.5-125.2,169.1-125.2c79.8,0,147.3,52.9,169.3,125.5h0.1c0.6,13.8,12,24.9,26,24.9c14.4,0,26-11.7,26-26c0-5.4-1.7-10.4-4.5-14.6C536.8,582.4,489.3,530.4,428.1,504.4z M337.9,497.6c-43.7,0-79.1-35.4-79.1-79.1c0-43.7,35.4-79.1,79.1-79.1c43.7,0,79.1,35.4,79.1,79.1C417.1,462.2,381.6,497.6,337.9,497.6z"/><path d="M817.4,475H633.9c-11.9,0-21.5,8.9-21.5,19.9v12.7c0,11,9.6,19.9,21.5,19.9h183.4c11.9,0,21.5-8.9,21.5-19.9v-12.7C838.9,483.9,829.2,475,817.4,475z"/><path d="M921.4,122.2H78.6c-37.9,0-68.6,30.7-68.6,68.7v618.4c0,37.9,30.7,68.7,68.6,68.7h842.8c37.9,0,68.6-30.7,68.6-68.7V190.8C990,152.9,959.3,122.2,921.4,122.2z M907.8,826.4h-814c-18.9,0-34.2-15.3-34.2-34.2V206.7c0-18.9,15.3-34.2,34.2-34.2h814c18.9,0,34.2,15.3,34.2,34.2v585.5l0,0C942,811.1,926.7,826.4,907.8,826.4z"/><path d="M817.4,323.5H633.9c-11.9,0-21.5,8.9-21.5,19.9V356c0,11,9.6,19.9,21.5,19.9h183.4c11.9,0,21.5-8.9,21.5-19.9v-12.7C838.9,332.4,829.2,323.5,817.4,323.5z"/></g>
</svg>