<?xml version="1.0" encoding="utf-8"?>
<!-- Svg Vector Icons : http://www.onlinewebfonts.com/icon -->
<!DOCTYPE svg PUBLIC "-//W3C//DTD SVG 1.1//EN" "http://www.w3.org/Graphics/SVG/1.1/DTD/svg11.dtd">
<svg version="1.1" xmlns="http://www.w3.org/2000/svg" xmlns:xlink="http://www.w3.org/1999/xlink" x="0px" y="0px" viewBox="0 0 1000 1000" enable-background="new 0 0 1000 1000" xml:space="preserve">
<metadata> Svg Vector Icons : http://www.onlinewebfonts.com/icon </metadata>
<g><path d="M375.6,360H163.9c-10.3,0-18.8-8.5-18.8-18.8s8.5-18.8,18.8-18.8h211.9c10.3,0,18.8,8.5,18.8,18.8C394.4,351.7,385.9,360,375.6,360L375.6,360L375.6,360z M375.6,443.9H163.9c-10.3,0-18.8-8.5-18.8-18.9c0-10.3,8.5-18.8,18.8-18.8h211.9c10.3,0,18.8,8.4,18.8,18.8C394.4,435.6,385.9,443.9,375.6,443.9L375.6,443.9L375.6,443.9z M367.3,118.4H148.7c-41.3,0-75,33.5-75,74.7v405.3h185.1c76.2,0,138.3,62.1,138.3,138.4v178.2h255.6c41.3,0,74.9-33.5,74.9-74.9V635c0-17.7,14.2-31.9,31.8-31.9c17.7,0,31.9,14.2,31.9,31.9v205.2c0,76.5-62.1,138.5-138.5,138.5H356.6c-8.5,0-16.4-3.4-22.4-9.3L19.3,656c-6-5.9-9.3-14.1-9.3-22.6V193.2c0-76.4,62.1-138.5,138.7-138.5h218.6c17.7,0,32,14.2,32,31.9C399.3,104.1,384.9,118.4,367.3,118.4L367.3,118.4L367.3,118.4L367.3,118.4z M334,879.5V736.9c0-41.6-33.8-75.3-75.1-75.3H115.3L334,879.5L334,879.5z"/><path d="M981.9,493.9L862,374c28.7-37,46-83.5,46-134c0-120.7-97.9-218.7-218.7-218.7c-120.7,0-218.6,98-218.6,218.7c0,120.7,97.9,218.6,218.6,218.6c50.5,0,97.1-17.1,134.1-46l119.9,119.9c5.3,5.3,12.3,8.1,19.3,8.1s14-2.7,19.3-8.1C992.7,521.8,992.7,504.6,981.9,493.9L981.9,493.9L981.9,493.9z M525.4,240c0-90.5,73.5-164,163.9-164c90.5,0,164,73.5,164,164c0,90.5-73.5,164-164,164C598.9,404,525.4,330.3,525.4,240L525.4,240L525.4,240z"/></g>
</svg>