<?xml version="1.0" encoding="utf-8"?>
<!-- Svg Vector Icons : http://www.onlinewebfonts.com/icon -->
<!DOCTYPE svg PUBLIC "-//W3C//DTD SVG 1.1//EN" "http://www.w3.org/Graphics/SVG/1.1/DTD/svg11.dtd">
<svg version="1.1" xmlns="http://www.w3.org/2000/svg" xmlns:xlink="http://www.w3.org/1999/xlink" x="0px" y="0px" viewBox="0 0 1000 1000" enable-background="new 0 0 1000 1000" xml:space="preserve">
<metadata> Svg Vector Icons : http://www.onlinewebfonts.com/icon </metadata>
<g><g transform="translate(0.000000,511.000000) scale(0.100000,-0.100000)"><path d="M550.7,4492c-178.3-47.9-349-199.4-414.2-368.2c-34.5-90.1-36.4-182.2-36.4-2683v-2589l49.9-107.4c63.3-136.2,166.8-239.7,303-303l107.4-49.9H5000h4439.7l107.4,49.9c136.2,63.3,239.7,166.9,303,303l49.9,107.4v2598.6V4049l-53.7,107.4c-61.4,126.6-189.9,253.1-316.4,310.7l-90.1,42.2l-4401.4,3.8C1601.6,4515,617.8,4511.2,550.7,4492z M9462.7,4162.2c28.8-21.1,72.9-69,97.8-103.6l42.2-63.3V1450.4v-2544.9l-44.1-65.2c-23-34.5-72.9-84.4-107.4-107.4l-65.2-44.1H5000H614l-65.2,44.1c-34.5,23-84.4,72.9-107.4,107.4l-44.1,65.2v2539.2c0,2740.5-5.8,2587.1,99.7,2684.9c23,23,65.2,49.9,92.1,61.4c30.7,11.5,1545.8,17.3,4434,15.3l4386-3.8L9462.7,4162.2z"/><path d="M1778.1,2831.2v-153.4h1380.8h1380.8v153.4v153.4H3158.9H1778.1V2831.2z"/><path d="M5460.3,2831.2v-153.4h1380.8h1380.8v153.4v153.4H6841.1H5460.3V2831.2z"/><path d="M1778.1,1910.7v-153.4h1380.8h1380.8v153.4v153.4H3158.9H1778.1V1910.7z"/><path d="M5460.3,1910.7v-153.4h1380.8h1380.8v153.4v153.4H6841.1H5460.3V1910.7z"/><path d="M1778.1,990.1V836.7h1380.8h1380.8v153.4v153.4H3158.9H1778.1V990.1z"/><path d="M5460.3,990.1V836.7h1380.8h1380.8v153.4v153.4H6841.1H5460.3V990.1z"/><path d="M1778.1,69.6V-83.8h1380.8h1380.8V69.6V223H3158.9H1778.1V69.6z"/><path d="M5460.3,69.6V-83.8h1380.8h1380.8V69.6V223H6841.1H5460.3V69.6z"/><path d="M3005.5-2786v-535.1l-234-7.7c-262.7-9.6-349-36.4-452.6-136.2c-105.5-101.6-145.8-195.6-145.8-349c0-159.2,44.1-257,153.4-354.8C2480-4303,2269-4293.4,5000-4293.4h2464.4l90.1,46c170.7,82.5,268.5,237.8,272.3,423.8c1.9,141.9-49.9,268.5-145.8,354.8c-118.9,109.3-187.9,130.4-450.7,140l-235.9,7.7v535.1v535.1H5000H3005.5V-2786z M6687.7-2941.4v-383.6H5000H3312.3v383.6v383.6H5000h1687.7V-2941.4z M7475.9-3687.4c71-72.9,74.8-168.8,9.6-245.5l-46-53.7H5000H2560.5l-46,53.7c-65.2,76.7-61.4,172.6,9.6,245.5l55.6,55.6H5000h2420.3L7475.9-3687.4z"/></g></g>
</svg>